#!OML:ASF Y:\EmotionMaleHayes\Project 1\Capture day 1\Session 1\Male1.ASF
:FULLY-SPECIFIED
:DEGREES
757
root 4.64033 7.81536 0.240461 -185.739 85.3234 -195.788
lowerback 41.5934 2.96162 -6.92757
upperback 15.553 3.55506 1.5655
thorax -2.7526 2.26758 3.85083
lowerneck -27.4406 0.391048 1.85461
upperneck 24.6399 -0.411029 0.928688
head 12.7719 0.171683 -0.0152034
rclavicle -2.50469e-014 1.2921e-014
rhumerus -34.0757 10.2787 -40.808
rradius 72.5434
rwrist -33.0376
rhand 0.354703 -31.6503
rfingers 7.12502
rthumb 25.9301 -59.9018
lclavicle -2.50469e-014 1.2921e-014
lhumerus -25.1633 -29.8087 43.1004
lradius 67.5187
lwrist 29.6042
lhand 3.45017 -18.4508
lfingers 7.12502
lthumb 28.8906 9.33173
rfemur -108.508 -14.6138 17.608
rtibia 26.6162
rfoot -201.516 -4.79435
rtoes -20.4967
lfemur -110.095 23.2284 -22.6945
ltibia 32.4352
lfoot -201.53 15.4455
ltoes -8.79939
758
root 4.64298 7.8106 0.241568 -184.635 85.3831 -194.66
lowerback 41.5299 3.0044 -6.85357
upperback 15.5918 3.64542 1.61917
thorax -2.70437 2.31014 3.84039
lowerneck -27.1996 0.38357 1.95875
upperneck 24.501 -0.393375 0.71893
head 12.6686 0.15691 -0.111046
rclavicle -5.56597e-015 -2.20651e-014
rhumerus -35.3741 10.2324 -39.3134
rradius 71.7348
rwrist -33.4221
rhand 0.286352 -31.5921
rfingers 7.12502
rthumb 25.8646 -59.8532
lclavicle -5.56597e-015 -2.20651e-014
lhumerus -26.328 -29.8574 41.9556
lradius 66.8414
lwrist 29.8084
lhand 3.97349 -17.7802
lfingers 7.12502
lthumb 29.3904 9.91571
rfemur -108.501 -14.6553 17.6598
rtibia 26.5713
rfoot -201.325 -5.12
rtoes -19.8209
lfemur -110.043 23.3696 -22.4184
ltibia 32.4667
lfoot -201.036 16.0315
ltoes -7.01183
759
root 4.64954 7.79879 0.242156 -180.902 85.4583 -190.931
lowerback 41.304 3.01324 -6.59485
upperback 15.6824 3.77975 1.7324
thorax -2.56016 2.3756 3.79209
lowerneck -27.0848 0.308825 1.99893
upperneck 24.4071 -0.459962 0.546914
head 12.6074 0.105309 -0.196559
rclavicle 6.59965e-014 4.75095e-014
rhumerus -36.5932 10.0771 -37.7435
rradius 70.8886
rwrist -33.6629
rhand 0.366999 -31.446
rfingers 7.12502
rthumb 25.9418 -59.6958
lclavicle 6.59965e-014 4.75095e-014
lhumerus -27.4491 -29.8147 40.8167
lradius 66.071
lwrist 29.7056
lhand 4.21228 -17.485
lfingers 7.12502
lthumb 29.6183 10.1707
rfemur -108.535 -14.669 17.8843
rtibia 26.5294
rfoot -201.336 -5.51376
rtoes -20.382
lfemur -110.149 23.5857 -21.9595
ltibia 32.3791
lfoot -200.463 16.6836
ltoes -5.60118
760
root 4.65722 7.78808 0.241775 -178.854 85.5241 -188.869
lowerback 41.0889 3.05911 -6.53483
upperback 15.7686 3.8843 1.85334
thorax -2.42379 2.41797 3.86363
lowerneck -27.0126 0.264414 2.02723
upperneck 24.3392 -0.469124 0.336525
head 12.5649 0.0725243 -0.284059
rclavicle -1.35174e-014 6.75868e-015
rhumerus -37.7009 9.88403 -36.1211
rradius 70.0682
rwrist -33.634
rhand 0.6335 -31.6018
rfingers 7.12502
rthumb 26.197 -59.8139
lclavicle -1.35174e-014 6.75868e-015
lhumerus -28.634 -29.8025 39.6464
lradius 65.3348
lwrist 29.6281
lhand 4.49461 -17.1355
lfingers 7.12502
lthumb 29.8878 10.472
rfemur -108.537 -14.7085 17.9289
rtibia 26.6245
rfoot -201.181 -5.78924
rtoes -21.5611
lfemur -110.21 23.7789 -21.6403
ltibia 32.2977
lfoot -200.232 16.9865
ltoes -6.72416
761
root 4.66056 7.78501 0.240115 -178.129 85.5887 -188.115
lowerback 41.0264 3.12751 -6.53909
upperback 15.7895 3.97409 1.94314
thorax -2.39986 2.45462 3.93092
lowerneck -26.8031 0.218088 2.00594
upperneck 24.1676 -0.480541 0.206883
head 12.4556 0.0442249 -0.332268
rclavicle -8.34896e-015 -2.36554e-014
rhumerus -38.8123 9.76972 -34.4839
rradius 69.1742
rwrist -33.5883
rhand 0.924278 -31.8549
rfingers 7.12502
rthumb 26.4754 -60.0255
lclavicle -8.34896e-015 -2.36554e-014
lhumerus -29.6372 -29.758 38.3857
lradius 64.5666
lwrist 29.6701
lhand 5.10767 -16.5965
lfingers 7.12502
lthumb 30.4727 10.9041
rfemur -108.474 -14.7309 17.8901
rtibia 26.7875
rfoot -201.021 -5.82771
rtoes -23.11
lfemur -110.154 23.9022 -21.4125
ltibia 32.2971
lfoot -200.178 17.1355
ltoes -7.89035
762
root 4.66142 7.78272 0.23778 -176.761 85.6372 -186.73
lowerback 40.9713 3.16831 -6.45626
upperback 15.8112 4.06164 2.01811
thorax -2.37427 2.49531 3.93888
lowerneck -26.5865 0.177567 2.00686
upperneck 24.0211 -0.495787 0.0880907
head 12.3553 0.0186656 -0.380256
rclavicle 7.95139e-015 -1.92821e-014
rhumerus -39.7859 9.68595 -32.8568
rradius 68.0757
rwrist -33.6044
rhand 1.32122 -32.0557
rfingers 7.12502
rthumb 26.8553 -60.1684
lclavicle 7.95139e-015 -1.92821e-014
lhumerus -30.3992 -29.4604 37.1019
lradius 63.5364
lwrist 29.3407
lhand 5.64168 -16.4822
lfingers 7.12502
lthumb 30.9818 10.9228
rfemur -108.418 -14.7628 17.9439
rtibia 26.8082
rfoot -201.154 -5.81476
rtoes -24.5198
lfemur -110.073 24.0007 -21.129
ltibia 32.2531
lfoot -199.921 17.597
ltoes -6.43171
763
root 4.66326 7.77651 0.234283 -175.288 85.6821 -185.242
lowerback 40.8718 3.17805 -6.32601
upperback 15.8501 4.13148 2.06075
thorax -2.31107 2.53101 3.89808
lowerneck -26.3611 0.187667 2.14258
upperneck 23.8397 -0.444942 -0.202562
head 12.2397 0.0102709 -0.503768
rclavicle -3.37934e-014 -2.32578e-014
rhumerus -40.6532 9.4946 -31.2352
rradius 66.9072
rwrist -33.4998
rhand 2.08335 -32.0982
rfingers 7.12502
rthumb 27.5843 -60.0967
lclavicle -3.37934e-014 -2.32578e-014
lhumerus -31.0279 -29.1133 35.7623
lradius 62.3113
lwrist 28.6027
lhand 5.88884 -16.7543
lfingers 7.12502
lthumb 31.2174 10.6056
rfemur -108.414 -14.8562 18.0305
rtibia 26.8146
rfoot -201.014 -5.81598
rtoes -24.3897
lfemur -110.051 24.0854 -20.9362
ltibia 32.1621
lfoot -199.639 17.9483
ltoes -4.86055
764
root 4.66697 7.76993 0.228879 -176.325 85.7417 -186.23
lowerback 40.8112 3.20619 -6.31919
upperback 15.8889 4.17564 2.04818
thorax -2.25333 2.55318 3.86961
lowerneck -26.1601 0.153917 2.19164
upperneck 23.5843 -0.455626 -0.383969
head 12.1002 -0.0190513 -0.581528
rclavicle -1.66979e-014 -2.80286e-014
rhumerus -41.5031 9.28041 -29.55
rradius 65.7945
rwrist -33.5208
rhand 2.81496 -32.0886
rfingers 7.12502
rthumb 28.2837 -59.9732
lclavicle -1.66979e-014 -2.80286e-014
lhumerus -31.5376 -28.7669 34.3588
lradius 61.023
lwrist 27.7824
lhand 6.08714 -17.0531
lfingers 7.12502
lthumb 31.4064 10.2701
rfemur -108.405 -15.0096 17.986
rtibia 26.8045
rfoot -200.719 -5.78906
rtoes -23.5021
lfemur -110.014 24.065 -21.0481
ltibia 32.1128
lfoot -199.795 17.7214
ltoes -5.69212
765
root 4.66935 7.76591 0.223589 -179.288 85.8014 -189.123
lowerback 40.7938 3.26818 -6.46478
upperback 15.9341 4.20599 2.0223
thorax -2.20113 2.56355 3.90806
lowerneck -26.0828 0.103658 2.19629
upperneck 23.4377 -0.496024 -0.492821
head 12.0271 -0.0539212 -0.629893
rclavicle -3.57812e-014 -3.77691e-015
rhumerus -42.3264 9.17072 -27.882
rradius 64.6677
rwrist -33.7505
rhand 3.27006 -32.2853
rfingers 7.12502
rthumb 28.7186 -60.0971
lclavicle -3.57812e-014 -3.77691e-015
lhumerus -31.9496 -28.1932 32.9029
lradius 59.6513
lwrist 26.9603
lhand 6.63085 -17.3952
lfingers 7.12502
lthumb 31.9242 9.82589
rfemur -108.377 -15.1745 17.878
rtibia 26.7744
rfoot -200.699 -5.74932
rtoes -23.5173
lfemur -109.916 23.9458 -21.3114
ltibia 32.1006
lfoot -200.206 17.254
ltoes -7.59808
766
root 4.66884 7.76115 0.218389 -180.047 85.8436 -189.836
lowerback 40.7379 3.29554 -6.47764
upperback 15.985 4.24608 2.0317
thorax -2.13342 2.58171 3.9148
lowerneck -26.0296 0.108529 2.33877
upperneck 23.4015 -0.472147 -0.742406
head 12.0018 -0.0652939 -0.743219
rclavicle -1.55052e-014 2.52457e-014
rhumerus -43.1556 8.85503 -26.3433
rradius 63.4783
rwrist -33.567
rhand 3.82687 -32.5356
rfingers 7.12502
rthumb 29.2504 -60.256
lclavicle -1.55052e-014 2.52457e-014
lhumerus -32.308 -27.3756 31.4054
lradius 58.2755
lwrist 25.9761
lhand 7.4297 -17.8116
lfingers 7.12502
lthumb 32.6846 9.25458
rfemur -108.373 -15.2485 17.9735
rtibia 26.724
rfoot -200.861 -5.66244
rtoes -23.9183
lfemur -109.877 23.8341 -21.4405
ltibia 32.047
lfoot -200.442 16.8947
ltoes -8.40714
767
root 4.66955 7.75335 0.210515 -179.289 85.8755 -189.046
lowerback 40.6187 3.26724 -6.33805
upperback 16.052 4.27821 2.04026
thorax -2.02575 2.60231 3.85005
lowerneck -25.9626 0.0919366 2.41641
upperneck 23.3805 -0.473475 -0.915402
head 11.98 -0.0827383 -0.821208
rclavicle -8.74653e-015 -7.95139e-016
rhumerus -43.9528 8.2267 -24.7743
rradius 62.3645
rwrist -33.1471
rhand 4.40433 -32.7028
rfingers 7.12502
rthumb 29.8016 -60.3258
lclavicle -8.74653e-015 -7.95139e-016
lhumerus -32.5727 -26.3661 29.8408
lradius 56.944
lwrist 25.0482
lhand 8.48644 -17.9622
lfingers 7.12502
lthumb 33.6894 8.88994
rfemur -108.402 -15.2814 18.1571
rtibia 26.6357
rfoot -201.051 -5.70665
rtoes -23.4979
lfemur -109.934 23.7389 -21.5224
ltibia 31.908
lfoot -200.566 16.5957
ltoes -8.04286
768
root 4.67173 7.74684 0.199391 -180.194 85.9069 -189.907
lowerback 40.5486 3.24035 -6.25352
upperback 16.1046 4.28625 2.00505
thorax -1.94247 2.61237 3.77303
lowerneck -25.8113 0.0572906 2.39964
upperneck 23.2697 -0.484201 -1.00844
head 11.9077 -0.102999 -0.854046
rclavicle -3.93594e-014 -1.23246e-014
rhumerus -44.7042 7.59049 -23.0971
rradius 61.331
rwrist -32.8287
rhand 5.02738 -32.7127
rfingers 7.12502
rthumb 30.3961 -60.2275
lclavicle -3.93594e-014 -1.23246e-014
lhumerus -32.735 -25.3602 28.173
lradius 55.6014
lwrist 24.3461
lhand 9.81179 -17.7978
lfingers 7.12502
lthumb 34.9478 8.77043
rfemur -108.443 -15.4159 18.1542
rtibia 26.5241
rfoot -201.153 -5.88222
rtoes -22.3703
lfemur -109.969 23.5791 -21.7013
ltibia 31.7526
lfoot -200.765 16.3952
ltoes -7.53929
